HIERARCHY
ROOT Hips
{
	OFFSET 0.000000 0.000000 0.000000
	CHANNELS 6 Xposition Yposition Zposition Zrotation Yrotation Xrotation 
	JOINT LHipJoint
	{
		OFFSET 0.000000 0.000000 0.000000
		CHANNELS 3 Zrotation Yrotation Xrotation
		JOINT LeftUpLeg
		{
			OFFSET 1.363060 -1.794630 0.839290
			CHANNELS 3 Zrotation Yrotation Xrotation
			JOINT LeftLeg
			{
				OFFSET 2.448110 -6.726130 0.000000
				CHANNELS 3 Zrotation Yrotation Xrotation
				JOINT LeftFoot
				{
					OFFSET 2.562200 -7.039590 0.000000
					CHANNELS 3 Zrotation Yrotation Xrotation
					JOINT LeftToeBase
					{
						OFFSET 0.157640 -0.433110 2.322550
						CHANNELS 3 Zrotation Yrotation Xrotation
						End Site
						{
							OFFSET 0.000000 0.000000 0.000000
						}
					}
				}
			}
		}
	}
	JOINT RHipJoint
	{
		OFFSET 0.000000 0.000000 0.000000
		CHANNELS 3 Zrotation Yrotation Xrotation
		JOINT RightUpLeg
		{
			OFFSET -1.305520 -1.794630 0.839290
			CHANNELS 3 Zrotation Yrotation Xrotation
			JOINT RightLeg
			{
				OFFSET -2.542530 -6.985550 0.000000
				CHANNELS 3 Zrotation Yrotation Xrotation
				JOINT RightFoot
				{
					OFFSET -2.568260 -7.056230 0.000000
					CHANNELS 3 Zrotation Yrotation Xrotation
					JOINT RightToeBase
					{
						OFFSET -0.164730 -0.452590 2.363150
						CHANNELS 3 Zrotation Yrotation Xrotation
						End Site
						{
							OFFSET 0.000000 0.000000 0.000000
						}
					}
				}
			}
		}
	}
}
MOTION
Frames: 19
Frame Time: 0.008333
3.192124 16.663755 -2.298042 101.825412 -86.052329 -115.656415 -6.856958 -4.642479 -0.359406 -22.608557 10.873452 -84.158599 -2.764955 1.367525 23.514553 0.995471 7.828556 12.285884 3.295200 0.000000 -38.027601 11.110933 -1.004667 -5.333101 5.834949 -15.490239 5.382192 1.028882 -2.476697 27.647896 -3.257037 -14.780034 -15.126635 1.517599 -0.000000 -58.230600
3.191773 16.670566 -2.297925 100.720650 -85.876044 -114.911176 -6.844973 -4.442041 -0.675664 -23.411425 11.550971 -83.228472 -2.555194 1.585004 26.189021 1.041638 7.967272 12.087740 3.240200 0.000000 -39.004501 11.204464 -1.042973 -5.184358 5.373797 -15.730138 5.657760 0.990126 -2.440290 27.433311 -3.209428 -14.603126 -14.988991 1.471900 0.000000 -58.677901
3.190009 16.678626 -2.295109 100.577696 -85.660592 -115.086776 -6.870444 -4.259699 -0.969887 -24.163897 12.346628 -82.372855 -2.338918 1.780339 28.879527 1.127941 8.340412 11.662868 3.238200 0.000000 -40.353000 11.236176 -1.087002 -5.014346 5.011469 -15.815765 5.912434 0.953260 -2.405966 27.207551 -3.178850 -14.498294 -14.842734 1.427300 0.000000 -59.055500
3.187389 16.687489 -2.290990 100.995315 -85.414585 -115.789696 -6.917735 -4.093894 -1.242408 -24.800332 13.212193 -81.479009 -2.118273 1.944944 31.472225 1.252729 8.986783 11.183201 3.317601 0.000000 -42.008300 11.238915 -1.130640 -4.834620 4.700732 -15.796688 6.144149 0.917140 -2.374263 26.988174 -3.158179 -14.433297 -14.701796 1.386000 -0.000001 -59.317600
3.183651 16.696381 -2.285239 101.955158 -85.142275 -117.015133 -6.991380 -3.949190 -1.496050 -25.269543 14.141717 -80.512806 -1.896141 2.082956 33.965520 1.404140 9.836543 10.705348 3.453700 -0.000000 -43.452099 11.211189 -1.172695 -4.654001 4.439851 -15.685382 6.378064 0.882493 -2.346189 26.773356 -3.145432 -14.397943 -14.565933 1.346800 -0.000000 -59.511700
3.179014 16.704761 -2.278507 103.206552 -84.855279 -118.518393 -7.086308 -3.822150 -1.728875 -25.534443 15.090595 -79.408780 -1.679064 2.192442 36.291083 1.570059 10.828442 10.314272 3.636800 -0.000000 -44.374400 11.169165 -1.209891 -4.482397 4.207073 -15.522419 6.618314 0.849374 -2.321384 26.568384 -3.135864 -14.370348 -14.440865 1.310399 0.000000 -59.657100
3.173768 16.712282 -2.271656 104.457438 -84.571559 -120.009407 -7.195851 -3.706971 -1.938991 -25.583151 16.006281 -78.113247 -1.473861 2.271874 38.381658 1.737774 11.891717 10.069725 3.857800 -0.000001 -44.613500 11.130773 -1.240454 -4.329296 3.979988 -15.356870 6.863768 0.818311 -2.299256 26.375621 -3.124446 -14.328125 -14.330119 1.276900 0.000000 -59.760800
3.168061 16.718676 -2.265175 105.531218 -84.310282 -121.311956 -7.317578 -3.599268 -2.125202 -25.422998 16.848768 -76.610895 -1.285608 2.323748 40.213394 1.894510 12.940204 9.974830 4.097001 0.000000 -44.092000 11.104283 -1.265369 -4.200884 3.749962 -15.226033 7.114547 0.790635 -2.279367 26.191556 -3.108009 -14.257506 -14.233274 1.245800 0.000001 -59.845900
3.161604 16.723846 -2.259051 106.406304 -84.085969 -122.400969 -7.453537 -3.496308 -2.284572 -25.069915 17.592178 -74.927173 -1.116785 2.354377 41.804849 2.030470 13.893757 9.989298 4.327999 0.000000 -42.856799 11.086613 -1.287468 -4.096802 3.528381 -15.141710 7.365780 0.767948 -2.261166 26.012131 -3.086702 -14.159495 -14.150061 1.217300 -0.000001 -59.930800
3.154822 16.727877 -2.254048 106.906437 -83.914897 -123.101377 -7.596180 -3.392355 -2.419494 -24.569280 18.210946 -73.072901 -0.968226 2.365510 43.152226 2.141449 14.716959 10.082205 4.538100 0.000000 -41.204601 11.088113 -1.308000 -4.020910 3.299656 -15.140163 7.616141 0.750697 -2.244020 25.830762 -3.057590 -14.022811 -14.075809 1.189900 -0.000001 -60.024100
3.147156 16.730925 -2.249692 107.162561 -83.798573 -123.538172 -7.748477 -3.286000 -2.528115 -23.950617 18.709425 -71.113976 -0.838315 2.366032 44.321843 2.226398 15.379410 10.173302 4.701200 0.000000 -39.323400 11.096760 -1.330053 -3.965944 3.087416 -15.203876 7.859257 0.739659 -2.227032 25.643146 -3.023615 -13.861016 -14.008616 1.163800 0.000000 -60.136300
3.138734 16.733292 -2.246302 107.139190 -83.738308 -123.676513 -7.904107 -3.173138 -2.614946 -23.263687 19.096997 -69.087323 -0.725008 2.359431 45.345537 2.288200 15.892523 10.218656 4.810300 0.000000 -37.527300 11.115366 -1.354437 -3.930082 2.885232 -15.339573 8.095916 0.734181 -2.209464 25.443355 -2.984609 -13.675094 -13.943047 1.137700 0.000000 -60.268900
3.129321 16.735297 -2.243578 106.941372 -83.724897 -123.621609 -8.061782 -3.052227 -2.682867 -22.542463 19.399249 -67.044720 -0.625706 2.351503 46.279281 2.331419 16.277652 10.167616 4.858699 0.000000 -35.991500 11.137309 -1.382192 -3.906144 2.703656 -15.525707 8.324616 0.733489 -2.190710 25.228648 -2.942957 -13.476809 -13.875327 1.111100 0.000000 -60.423000
3.118727 16.737208 -2.241281 106.670229 -83.745838 -123.475136 -8.219832 -2.922058 -2.736427 -21.816096 19.648475 -65.024886 -0.538264 2.346565 47.165659 2.361467 16.568548 9.991172 4.848700 -0.000000 -34.828600 11.157609 -1.413607 -3.887412 2.548953 -15.738395 8.545440 0.736463 -2.170422 24.997865 -2.901087 -13.277784 -13.803593 1.084000 -0.000000 -60.592700
3.106727 16.739327 -2.239129 106.440340 -83.786900 -123.352410 -8.377864 -2.782265 -2.780473 -21.103969 19.879480 -63.054486 -0.461115 2.347857 48.034623 2.383485 16.800759 9.677863 4.787400 0.000000 -34.046600 11.171056 -1.448796 -3.867328 2.427559 -15.950310 8.759718 0.741933 -2.148611 24.751139 -2.861564 -13.090196 -13.726365 1.056501 0.000000 -60.766600
3.093256 16.741823 -2.236879 106.350945 -83.834352 -123.355454 -8.536065 -2.633356 -2.819711 -20.415905 20.123294 -61.145088 -0.393058 2.356787 48.896973 2.402033 17.008703 9.239545 4.687600 -0.000000 -33.625300 11.173991 -1.487340 -3.840704 2.342933 -16.136126 8.969417 0.748838 -2.125592 24.489963 -2.826534 -12.923842 -13.644520 1.029000 -0.000000 -60.932400
3.078232 16.744834 -2.234414 106.475791 -83.876513 -123.559321 -8.694732 -2.476190 -2.857914 -19.753853 20.402600 -59.295590 -0.333174 2.373246 49.745994 2.420871 17.222064 8.706801 4.565000 -0.000000 -33.517000 11.164536 -1.528560 -3.804318 2.295436 -16.276715 9.176929 0.756224 -2.101832 24.216623 -2.797594 -12.786032 -13.559189 1.001900 0.000000 -61.077800
3.061684 16.748363 -2.231624 106.869550 -83.905860 -124.020727 -8.854951 -2.312453 -2.897063 -19.111313 20.729769 -57.499029 -0.280915 2.396251 50.564792 2.442276 17.458820 8.112173 4.431800 -0.000000 -33.598900 11.140787 -1.571641 -3.756354 2.287470 -16.356892 9.383829 0.763603 -2.077798 23.933671 -2.776094 -12.682601 -13.473012 0.976100 0.000000 -61.186500
3.043815 16.752369 -2.228580 107.519098 -83.919427 -124.727943 -9.015861 -2.143714 -2.938139 -18.479077 21.103853 -55.738140 -0.235653 2.423145 51.323041 2.467797 17.732255 7.499027 4.301700 -0.000001 -33.796900 11.104944 -1.615234 -3.698313 2.314582 -16.374719 9.592830 0.770627 -2.053895 23.643471 -2.762102 -12.613425 -13.388912 0.951800 -0.000000 -61.247300
